<svg width="25" height="24" viewBox="0 0 25 24" fill="none" xmlns="http://www.w3.org/2000/svg">
<g id="SVG">
<g id="Vector">
<path d="M3.87012 8C3.87012 6.89543 4.76555 6 5.87012 6H17.8701C18.9747 6 19.8701 6.89543 19.8701 8V16C19.8701 17.1046 18.9747 18 17.8701 18H5.87012C4.76555 18 3.87012 17.1046 3.87012 16V8ZM5.87012 7C5.31783 7 4.87012 7.44772 4.87012 8V9H18.8701V8C18.8701 7.44772 18.4224 7 17.8701 7H5.87012ZM18.8701 11H4.87012V16C4.87012 16.5523 5.31783 17 5.87012 17H17.8701C18.4224 17 18.8701 16.5523 18.8701 16V11Z" fill="black"/>
<path d="M5.87012 14C5.87012 13.4477 6.31783 13 6.87012 13H7.87012C8.4224 13 8.87012 13.4477 8.87012 14V15C8.87012 15.5523 8.4224 16 7.87012 16H6.87012C6.31783 16 5.87012 15.5523 5.87012 15V14Z" fill="black"/>
</g>
</g>
</svg>
