<svg width="25" height="24" viewBox="0 0 25 24" fill="none" xmlns="http://www.w3.org/2000/svg">
<g id="SVG">
<path id="Union (Stroke)" d="M6.51797 15.894C6.72837 16.1049 6.83372 16.3988 6.80532 16.6954C6.74168 17.3601 6.5951 18.0519 6.40686 18.6945C7.80175 18.3721 8.65366 17.9981 9.0409 17.8019C9.26071 17.6905 9.5139 17.6642 9.75191 17.728C10.4098 17.9044 11.1109 18 11.8401 18C15.8357 18 18.8401 15.1925 18.8401 12C18.8401 8.80754 15.8357 6 11.8401 6C7.84449 6 4.84009 8.80754 4.84009 12C4.84009 13.4681 5.45739 14.8304 6.51797 15.894ZM6.02498 19.7989C6.01825 19.8003 6.0115 19.8016 6.00475 19.8029C5.91292 19.821 5.81931 19.8388 5.72391 19.8563C5.59008 19.8808 5.45273 19.9047 5.31181 19.9277C5.11279 19.9603 4.96045 19.7521 5.03907 19.5664C5.09043 19.4451 5.14106 19.3179 5.19039 19.1861C5.22173 19.1023 5.25254 19.0167 5.28268 18.9294C5.28397 18.9256 5.28527 18.9219 5.28657 18.9181C5.53431 18.1984 5.73605 17.3711 5.80987 16.6001C4.58315 15.3699 3.84009 13.7609 3.84009 12C3.84009 8.13401 7.42181 5 11.8401 5C16.2584 5 19.8401 8.13401 19.8401 12C19.8401 15.866 16.2584 19 11.8401 19C11.0233 19 10.2352 18.8929 9.49293 18.6939C8.97345 18.9571 7.85442 19.4363 6.02498 19.7989Z" fill="black"/>
</g>
</svg>
