<svg width="60" height="60" viewBox="0 0 60 60" fill="none" xmlns="http://www.w3.org/2000/svg">
<g id="download">
<g id="v2">
<path d="M1.875 37.1251C2.91053 37.1251 3.75 37.9646 3.75 39.0001V48.3751C3.75 50.4462 5.42893 52.1251 7.5 52.1251H52.5C54.5711 52.1251 56.25 50.4462 56.25 48.3751V39.0001C56.25 37.9646 57.0895 37.1251 58.125 37.1251C59.1605 37.1251 60 37.9646 60 39.0001V48.3751C60 52.5172 56.6421 55.8751 52.5 55.8751H7.5C3.35787 55.8751 0 52.5172 0 48.3751V39.0001C0 37.9646 0.839466 37.1251 1.875 37.1251Z" fill="#9A8B18"/>
<path d="M28.6742 44.4508C29.4064 45.1831 30.5936 45.1831 31.3258 44.4508L42.5758 33.2008C43.3081 32.4686 43.3081 31.2814 42.5758 30.5492C41.8436 29.8169 40.6564 29.8169 39.9242 30.5492L31.875 38.5984V5.625C31.875 4.58947 31.0355 3.75 30 3.75C28.9645 3.75 28.125 4.58947 28.125 5.625V38.5984L20.0758 30.5492C19.3436 29.8169 18.1564 29.8169 17.4242 30.5492C16.6919 31.2814 16.6919 32.4686 17.4242 33.2008L28.6742 44.4508Z" fill="#9A8B18"/>
</g>
</g>
</svg>
