<svg width="25" height="24" viewBox="0 0 25 24" fill="none" xmlns="http://www.w3.org/2000/svg">
<g id="SVG">
<path id="house-cutout" d="M11.913 5.29289C12.3035 4.90237 12.9367 4.90237 13.3272 5.29289L15.6201 7.58579V6.29289C15.6201 6.01675 15.844 5.79289 16.1201 5.79289H17.1201C17.3963 5.79289 17.6201 6.01675 17.6201 6.29289V9.58579L19.9737 11.9393C20.1689 12.1346 20.1689 12.4512 19.9737 12.6464C19.7784 12.8417 19.4618 12.8417 19.2666 12.6464L12.6201 6L7.62012 11V17.2929C7.62012 17.569 7.84397 17.7929 8.12012 17.7929L12.1201 17.7929C12.3963 17.7929 12.6201 18.0168 12.6201 18.2929C12.6201 18.569 12.3963 18.7929 12.1201 18.7929L8.12012 18.7929C7.29169 18.7929 6.62012 18.1213 6.62012 17.2929V12L5.97367 12.6464C5.77841 12.8417 5.46183 12.8417 5.26656 12.6464C5.0713 12.4512 5.0713 12.1346 5.26656 11.9393L11.913 5.29289Z" fill="black"/>
</g>
</svg>
