<svg width="23" height="23" viewBox="0 0 23 23" fill="none" xmlns="http://www.w3.org/2000/svg">
<g id="person-circle">
<g id="Union">
<path d="M15.8125 8.625C15.8125 11.0067 13.8817 12.9375 11.5 12.9375C9.11827 12.9375 7.1875 11.0067 7.1875 8.625C7.1875 6.24327 9.11827 4.3125 11.5 4.3125C13.8817 4.3125 15.8125 6.24327 15.8125 8.625Z" fill="black"/>
<path fill-rule="evenodd" clip-rule="evenodd" d="M0 11.5C0 5.14873 5.14873 0 11.5 0C17.8513 0 23 5.14873 23 11.5C23 17.8513 17.8513 23 11.5 23C5.14873 23 0 17.8513 0 11.5ZM11.5 1.4375C5.94263 1.4375 1.4375 5.94263 1.4375 11.5C1.4375 13.8768 2.26156 16.0611 3.63955 17.7829C4.66171 16.1363 6.90667 14.375 11.5 14.375C16.0933 14.375 18.3383 16.1363 19.3605 17.7829C20.7384 16.0611 21.5625 13.8768 21.5625 11.5C21.5625 5.94263 17.0574 1.4375 11.5 1.4375Z" fill="black"/>
</g>
</g>
</svg>
