<svg width="25" height="24" viewBox="0 0 25 24" fill="none" xmlns="http://www.w3.org/2000/svg">
<g id="SVG">
<g id="Vector">
<path d="M11.6802 20C12.7847 20 13.6802 19.1046 13.6802 18H9.68018C9.68018 19.1046 10.5756 20 11.6802 20Z" fill="black"/>
<path d="M11.6802 5.91825L10.883 6.07925C9.0557 6.44829 7.6802 8.06463 7.6802 10C7.6802 10.6278 7.54583 12.1972 7.22133 13.7422C7.06024 14.5091 6.84472 15.3076 6.55827 16H16.8021C16.5156 15.3076 16.3001 14.5091 16.139 13.7422C15.8146 12.1972 15.6802 10.6278 15.6802 10C15.6802 8.06462 14.3047 6.44827 12.4774 6.07924L11.6802 5.91825ZM17.8995 16C18.1227 16.4474 18.3816 16.801 18.6802 17H4.68018C4.9787 16.801 5.23762 16.4474 5.46088 16C6.3594 14.1994 6.6802 10.8792 6.6802 10C6.6802 7.57934 8.40038 5.56045 10.685 5.09904C10.6818 5.06646 10.6802 5.03342 10.6802 5C10.6802 4.44772 11.1279 4 11.6802 4C12.2325 4 12.6802 4.44772 12.6802 5C12.6802 5.03342 12.6785 5.06646 12.6753 5.09903C14.96 5.56042 16.6802 7.57932 16.6802 10C16.6802 10.8792 17.001 14.1994 17.8995 16Z" fill="black"/>
</g>
</g>
</svg>
